# Blender v2.79 (sub 0) OBJ File: 'bigfish.blend'
# www.blender.org
mtllib bigfish.mtl
o Fish_Mesh
v -0.025934 -0.930735 0.247159
v -0.047352 1.497133 0.116014
v -0.025934 -0.930735 -0.265016
v -0.047352 1.497133 -0.157841
v 0.025934 -0.930735 0.247159
v 0.047352 1.497133 0.116014
v 0.025934 -0.930735 -0.265016
v 0.047352 1.497133 -0.157841
v -0.052007 -0.734213 0.173356
v -0.052007 -0.376371 0.107881
v -0.070747 -0.141090 0.235824
v -0.133233 0.401762 0.337004
v -0.164172 0.709300 0.390242
v -0.164172 1.079936 0.390242
v -0.123239 1.079936 -0.328899
v -0.123239 0.709300 -0.328899
v -0.092301 0.401762 -0.288978
v -0.070747 -0.141090 -0.206026
v -0.052007 -0.376371 -0.119786
v -0.052007 -0.734213 -0.167404
v 0.122440 1.079936 -0.328899
v 0.122440 0.709300 -0.328899
v 0.091502 0.401762 -0.288978
v 0.070747 -0.141090 -0.206026
v 0.052007 -0.376371 -0.119786
v 0.052007 -0.734213 -0.167404
v 0.164172 1.079936 0.390242
v 0.164172 0.709300 0.390242
v 0.133233 0.401762 0.337004
v 0.070747 -0.141090 0.235824
v 0.052007 -0.376371 0.107881
v 0.052007 -0.734213 0.173356
v -0.025934 -0.930735 0.000000
v -0.047352 1.497133 0.000000
v 0.025934 -0.930735 0.000000
v 0.047352 1.497133 0.000000
v 0.052007 -0.734213 0.000000
v 0.052007 -0.376371 0.000000
v 0.070747 -0.141090 0.000000
v 0.425164 0.401762 0.000000
v 0.456102 0.709300 0.000000
v 0.456102 1.079936 0.000000
v -0.052007 -0.734213 0.000000
v -0.052007 -0.376371 0.000000
v -0.070747 -0.141090 0.000000
v -0.413461 0.401762 0.000000
v -0.444400 0.709300 0.000000
v -0.444400 1.079936 0.000000
v -0.123117 1.322820 0.303283
v -0.082185 1.322820 -0.255257
v 0.081386 1.322820 -0.255257
v 0.123117 1.322820 0.303283
v 0.415047 1.322820 0.000000
v -0.403345 1.322820 0.000000
v -0.012844 0.536465 0.575955
v -0.015826 0.614972 0.581087
v -0.015826 0.730290 0.581087
v 0.015826 0.730290 0.581087
v 0.015826 0.614972 0.581087
v 0.012844 0.536465 0.575955
v -0.050121 0.983457 0.441395
v 0.050121 0.983457 0.441395
v 0.040676 0.565908 0.425142
v -0.040676 0.565908 0.425142
v -0.050121 0.713557 0.441395
v 0.050121 0.713557 0.441395
v -0.025934 -0.930735 0.123579
v 0.047352 1.497133 0.058007
v 0.052007 -0.734213 0.086678
v 0.052007 -0.376371 0.053941
v 0.070747 -0.141090 0.117912
v 0.256589 0.401762 0.168502
v 0.287528 0.709300 0.195121
v 0.287528 1.079936 0.195121
v -0.047352 1.497133 0.058007
v 0.025934 -0.930735 0.123579
v -0.052007 -0.734213 0.086678
v -0.052007 -0.376371 0.053941
v -0.070747 -0.141090 0.117912
v -0.250738 0.401762 0.168502
v -0.281677 0.709300 0.195121
v -0.281677 1.079936 0.195121
v -0.240622 1.322820 0.151642
v 0.246473 1.322820 0.151642
v -0.047352 1.497133 -0.078920
v 0.025934 -0.930735 -0.132508
v -0.052007 -0.734213 -0.083702
v -0.052007 -0.376371 -0.059893
v -0.070747 -0.141090 -0.103013
v -0.320305 0.401762 -0.144489
v -0.351243 0.709300 -0.164450
v -0.351243 1.079936 -0.164450
v -0.025934 -0.930735 -0.132508
v 0.047352 1.497133 -0.078920
v 0.052007 -0.734213 -0.083702
v 0.052007 -0.376371 -0.059893
v 0.070747 -0.141090 -0.103013
v 0.326156 0.401762 -0.144489
v 0.357094 0.709300 -0.164450
v 0.357094 1.079936 -0.164450
v 0.316040 1.322820 -0.127629
v -0.310189 1.322820 -0.127629
v 0.613221 0.711171 -0.171783
v 0.613221 0.826436 -0.171783
v 0.582430 0.711171 -0.222926
v 0.582430 0.826436 -0.222926
v -0.615150 0.704433 -0.174428
v -0.615150 0.828613 -0.174428
v -0.583938 0.704433 -0.229526
v -0.583938 0.828613 -0.229526
vn -0.5030 0.6623 -0.5553
vn 0.0000 0.4878 -0.8729
vn 0.5832 0.7363 0.3431
vn 0.0000 0.7320 0.6813
vn 0.0000 -1.0000 0.0000
vn 0.0000 1.0000 0.0000
vn 0.0000 0.3516 0.9362
vn 0.0000 0.1800 0.9837
vn 0.0000 -0.4777 0.8785
vn 0.0000 -0.1832 0.9831
vn 0.0000 -0.9815 -0.1916
vn 0.0000 0.4831 0.8756
vn 0.9913 -0.1315 0.0000
vn 1.0000 -0.0000 0.0000
vn 0.9968 -0.0794 0.0000
vn 0.8877 -0.2565 0.3823
vn 0.8176 -0.1543 0.5547
vn 0.8453 0.0000 0.5344
vn 0.0000 0.4448 -0.8956
vn 0.0000 0.1319 -0.9913
vn 0.0000 -0.3442 -0.9389
vn 0.0000 -0.1511 -0.9885
vn 0.0000 -0.1287 -0.9917
vn 0.0000 0.0000 -1.0000
vn -0.9913 -0.1315 0.0000
vn -1.0000 -0.0000 0.0000
vn -0.9968 -0.0794 0.0000
vn -0.7116 -0.2528 -0.6555
vn -0.5557 -0.1358 -0.8202
vn -0.5850 0.0000 -0.8111
vn -0.7680 0.0000 0.6405
vn -0.7412 -0.1033 0.6633
vn -0.7954 -0.4040 0.4519
vn 0.0072 -1.0000 -0.0043
vn 0.8375 -0.1017 -0.5368
vn 0.8184 -0.4722 -0.3274
vn 0.4559 0.8628 -0.2185
vn -0.4572 0.8155 0.3548
vn -0.7171 0.1814 0.6730
vn 0.8143 0.1795 -0.5520
vn 0.0000 0.3371 0.9415
vn 0.7819 0.2815 0.5563
vn 0.0000 0.2902 -0.9570
vn -0.5190 0.2720 -0.8103
vn 0.0000 -0.0652 0.9979
vn 0.0000 0.0000 1.0000
vn -0.9712 0.0000 0.2384
vn 0.9712 0.0000 0.2384
vn -0.9814 -0.0708 0.1787
vn 0.9814 -0.0708 0.1787
vn 0.4493 -0.1736 0.8764
vn -0.4493 -0.1736 0.8764
vn 0.4092 0.0000 0.9124
vn -0.4092 0.0000 0.9124
vn 0.0000 0.4684 0.8835
vn 0.0000 -0.4731 0.8810
vn 0.7052 0.1806 0.6856
vn -0.7949 0.2790 0.5387
vn -0.5965 0.7297 0.3343
vn -0.8955 -0.2513 0.3674
vn -0.8300 -0.1531 0.5364
vn -0.8567 0.0000 0.5159
vn 0.7567 0.0000 0.6538
vn 0.7294 -0.1026 0.6763
vn 0.7852 -0.4122 0.4621
vn 0.4455 0.8205 0.3582
vn -0.8293 0.1803 -0.5290
vn 0.5085 0.2718 -0.8171
vn 0.4940 0.6641 -0.5612
vn 0.7017 -0.2547 -0.6653
vn 0.5448 -0.1354 -0.8276
vn 0.5739 0.0000 -0.8189
vn -0.6361 0.6823 -0.3603
vn -0.8518 -0.1024 -0.5137
vn -0.8290 -0.4641 -0.3120
vn -0.4672 0.8587 -0.2107
vn 0.8567 0.0000 -0.5158
vn 0.7379 0.0000 0.6749
vn -0.2512 0.0000 -0.9679
vn 0.6430 0.6608 -0.3871
vn -0.8701 0.0000 -0.4929
vn 0.2693 0.0000 -0.9630
vn 0.0181 -0.9998 0.0102
vn -0.7146 0.0000 0.6995
usemtl None
s off
f 102//1 85//1 4//1 50//1
f 50//2 4//2 8//2 51//2
f 84//3 68//3 6//3 52//3
f 52//4 6//4 2//4 49//4
f 67//5 76//5 5//5 1//5
f 68//6 75//6 2//6 6//6
f 5//7 32//7 9//7 1//7
f 32//8 31//8 10//8 9//8
f 31//9 30//9 11//9 10//9
f 30//10 29//10 12//10 11//10
f 64//11 63//11 60//11 55//11
f 62//12 61//12 57//12 58//12
f 76//13 69//13 32//13 5//13
f 69//14 70//14 31//14 32//14
f 70//15 71//15 30//15 31//15
f 71//16 72//16 29//16 30//16
f 72//17 73//17 28//17 29//17
f 73//18 74//18 27//18 28//18
f 3//19 20//19 26//19 7//19
f 20//20 19//20 25//20 26//20
f 19//21 18//21 24//21 25//21
f 18//22 17//22 23//22 24//22
f 17//23 16//23 22//23 23//23
f 16//24 15//24 21//24 22//24
f 93//25 87//25 20//25 3//25
f 87//26 88//26 19//26 20//26
f 88//27 89//27 18//27 19//27
f 89//28 90//28 17//28 18//28
f 90//29 91//29 16//29 17//29
f 91//30 92//30 15//30 16//30
f 81//31 82//31 48//31 47//31
f 80//32 81//32 47//32 46//32
f 79//33 80//33 46//33 45//33
f 78//27 79//27 45//27 44//27
f 77//26 78//26 44//26 43//26
f 67//25 77//25 43//25 33//25
f 41//34 99//34 105//34 103//34
f 98//35 99//35 41//35 40//35
f 97//36 98//36 40//36 39//36
f 96//15 97//15 39//15 38//15
f 95//14 96//14 38//14 37//14
f 86//13 95//13 37//13 35//13
f 94//6 85//6 34//6 36//6
f 93//5 86//5 35//5 33//5
f 101//37 94//37 36//37 53//37
f 83//38 75//38 34//38 54//38
f 82//39 83//39 54//39 48//39
f 100//40 101//40 53//40 42//40
f 27//41 52//41 49//41 14//41
f 74//42 84//42 52//42 27//42
f 15//43 50//43 51//43 21//43
f 92//44 102//44 50//44 15//44
f 60//45 59//45 56//45 55//45
f 59//46 58//46 57//46 56//46
f 61//47 65//47 56//47 57//47
f 66//48 62//48 58//48 59//48
f 65//49 64//49 55//49 56//49
f 63//50 66//50 59//50 60//50
f 29//51 28//51 66//51 63//51
f 13//52 12//52 64//52 65//52
f 28//53 27//53 62//53 66//53
f 14//54 13//54 65//54 61//54
f 27//55 14//55 61//55 62//55
f 12//56 29//56 63//56 64//56
f 42//57 53//57 84//57 74//57
f 14//58 49//58 83//58 82//58
f 49//59 2//59 75//59 83//59
f 1//25 9//25 77//25 67//25
f 9//26 10//26 78//26 77//26
f 10//27 11//27 79//27 78//27
f 11//60 12//60 80//60 79//60
f 12//61 13//61 81//61 80//61
f 13//62 14//62 82//62 81//62
f 41//63 42//63 74//63 73//63
f 40//64 41//64 73//64 72//64
f 39//65 40//65 72//65 71//65
f 38//15 39//15 71//15 70//15
f 37//14 38//14 70//14 69//14
f 35//13 37//13 69//13 76//13
f 36//6 34//6 75//6 68//6
f 33//5 35//5 76//5 67//5
f 53//66 36//66 68//66 84//66
f 48//67 54//67 102//67 92//67
f 21//68 51//68 101//68 100//68
f 51//69 8//69 94//69 101//69
f 3//5 7//5 86//5 93//5
f 8//6 4//6 85//6 94//6
f 7//13 26//13 95//13 86//13
f 26//14 25//14 96//14 95//14
f 25//15 24//15 97//15 96//15
f 24//70 23//70 98//70 97//70
f 23//71 22//71 99//71 98//71
f 22//72 21//72 100//72 99//72
f 48//73 92//73 110//73 108//73
f 46//74 47//74 91//74 90//74
f 45//75 46//75 90//75 89//75
f 44//27 45//27 89//27 88//27
f 43//26 44//26 88//26 87//26
f 33//25 43//25 87//25 93//25
f 54//76 34//76 85//76 102//76
f 105//77 106//77 104//77 103//77
f 42//78 41//78 103//78 104//78
f 99//79 100//79 106//79 105//79
f 100//80 42//80 104//80 106//80
f 107//81 108//81 110//81 109//81
f 92//82 91//82 109//82 110//82
f 91//83 47//83 107//83 109//83
f 47//84 48//84 108//84 107//84
