# Blender v2.79 (sub 0) OBJ File: 'cruiser.blend'
# www.blender.org
mtllib cruiser.mtl
o Cube
v 1.523334 -5.735679 0.733036
v -1.523334 -5.735679 0.733036
v -1.523333 -5.735679 -0.714332
v 1.523334 -5.735679 -0.714331
v 0.649694 5.091955 0.318000
v -0.649695 5.091955 0.317999
v -0.649694 5.091955 -0.299296
v 0.649695 5.091955 -0.299296
v 1.523334 -5.227901 0.733036
v 1.926359 -0.333333 0.924501
v 1.781143 1.556539 0.855513
v 1.364918 3.244402 0.657779
v 1.000000 4.466551 0.484419
v -1.523334 -5.227901 0.733036
v -1.926360 -0.333333 0.924500
v -1.781144 1.556539 0.855512
v -1.364919 3.244402 0.657778
v -1.000000 4.466551 0.484418
v -1.523333 -5.227901 -0.714332
v -1.926359 -0.333333 -0.905796
v -1.781143 1.556539 -0.836809
v -1.364918 3.244402 -0.639075
v -1.000000 4.466551 -0.465714
v 1.523334 -5.227901 -0.714331
v 1.926360 -0.333333 -0.905795
v 1.781144 1.556539 -0.836808
v 1.364919 3.244402 -0.639074
v 1.000000 4.466551 -0.465714
v 1.993718 -2.371884 0.956500
v 1.168468 -1.603205 0.564452
v -1.993719 -2.371884 0.956500
v -1.168468 -1.603205 0.564451
v -1.993718 -2.371884 -0.937796
v -1.168468 -1.603205 -0.545748
v 1.993719 -2.371884 -0.937795
v 1.168468 -1.603205 -0.545747
v -1.523333 -4.635482 -1.318107
v 1.523334 -4.635482 -1.318106
v -1.637797 -2.567708 -1.203428
v 1.573567 -2.567708 -1.203427
v 0.000001 -4.635482 -1.102007
v -1.580565 -3.601595 -1.617877
v 1.548451 -3.601595 -1.617877
v -0.032115 -2.567708 -0.987328
v -0.016057 -3.601595 -1.401778
v -0.761666 -4.635482 -1.624804
v -0.834956 -2.567708 -1.510126
v -0.798311 -3.601595 -1.924575
v 0.761668 -4.635482 -1.624804
v 0.770726 -2.567708 -1.510125
v 0.766197 -3.601595 -1.924575
v 0.380834 -4.635482 -1.624804
v 0.369305 -2.567708 -1.510125
v 0.375070 -3.601595 -1.924575
v -0.380833 -4.635482 -1.624804
v -0.433536 -2.567708 -1.510125
v -0.407184 -3.601595 -1.924575
vn 0.0000 -1.0000 0.0000
vn 0.0000 1.0000 0.0000
vn -0.0000 0.2571 0.9664
vn -0.8725 0.4887 -0.0000
vn 0.0000 0.2571 -0.9664
vn 1.0000 0.0000 0.0000
vn 0.8725 0.4887 0.0000
vn 0.9582 0.2861 0.0000
vn 0.9709 0.2394 0.0000
vn 0.9971 0.0766 0.0000
vn 0.9867 -0.1625 0.0000
vn 0.0000 -0.0000 -1.0000
vn 0.0000 -0.2728 -0.9621
vn 0.0000 0.0365 -0.9993
vn 0.0000 0.1164 -0.9932
vn 0.0000 0.1404 -0.9901
vn -1.0000 0.0000 -0.0000
vn -0.8587 -0.5125 -0.0000
vn -0.9971 0.0766 -0.0000
vn -0.9709 0.2394 -0.0000
vn -0.9582 0.2861 -0.0000
vn -0.0000 -0.0000 1.0000
vn -0.0000 -0.2728 0.9621
vn -0.0000 0.0365 0.9993
vn -0.0000 0.1164 0.9932
vn -0.0000 0.1404 0.9901
vn -0.0000 -0.0780 0.9970
vn -0.0000 0.4543 0.8908
vn -0.9867 -0.1625 -0.0000
vn -0.6816 0.7317 -0.0000
vn 0.9256 -0.0865 -0.3685
vn 0.0000 0.4543 -0.8908
vn 0.8587 -0.5125 0.0000
vn 0.6816 0.7317 0.0000
vn 0.3386 0.3459 -0.8750
vn -0.9396 -0.1034 -0.3263
vn 0.0000 -0.7920 -0.6106
vn 0.0000 0.9034 -0.4288
vn 0.3560 -0.2649 -0.8961
vn 0.7949 -0.1539 -0.5869
vn 0.7716 0.2503 -0.5848
vn -0.3398 0.3366 -0.8782
vn -0.3550 -0.2752 -0.8935
vn 0.0000 -0.2785 -0.9604
vn 0.0000 0.3721 -0.9282
vn -0.7760 0.2276 -0.5882
vn -0.7917 -0.1778 -0.5845
usemtl Material
s off
f 1//1 2//1 3//1 4//1
f 5//2 8//2 7//2 6//2
f 13//3 5//3 6//3 18//3
f 18//4 6//4 7//4 23//4
f 23//5 7//5 8//5 28//5
f 9//6 1//6 4//6 24//6
f 5//7 13//7 28//7 8//7
f 13//8 12//8 27//8 28//8
f 12//9 11//9 26//9 27//9
f 11//10 10//10 25//10 26//10
f 29//11 9//11 24//11 35//11
f 3//12 19//12 24//12 4//12
f 34//13 20//13 25//13 36//13
f 20//14 21//14 26//14 25//14
f 21//15 22//15 27//15 26//15
f 22//16 23//16 28//16 27//16
f 2//17 14//17 19//17 3//17
f 32//18 15//18 20//18 34//18
f 15//19 16//19 21//19 20//19
f 16//20 17//20 22//20 21//20
f 17//21 18//21 23//21 22//21
f 1//22 9//22 14//22 2//22
f 30//23 10//23 15//23 32//23
f 10//24 11//24 16//24 15//24
f 11//25 12//25 17//25 16//25
f 12//26 13//26 18//26 17//26
f 9//27 29//27 31//27 14//27
f 29//28 30//28 32//28 31//28
f 14//29 31//29 33//29 19//29
f 31//30 32//30 34//30 33//30
f 35//31 24//31 38//31 43//31 40//31
f 33//32 34//32 36//32 35//32
f 10//33 30//33 36//33 25//33
f 30//34 29//34 35//34 36//34
f 51//35 50//35 40//35 43//35
f 19//36 33//36 39//36 42//36 37//36
f 24//37 19//37 37//37 46//37 55//37 41//37 52//37 49//37 38//37
f 33//38 35//38 40//38 50//38 53//38 44//38 56//38 47//38 39//38
f 49//39 51//39 43//39 38//39
f 55//40 57//40 45//40 41//40
f 57//41 56//41 44//41 45//41
f 42//42 39//42 47//42 48//42
f 37//43 42//43 48//43 46//43
f 52//44 54//44 51//44 49//44
f 54//45 53//45 50//45 51//45
f 45//46 44//46 53//46 54//46
f 41//47 45//47 54//47 52//47
f 48//45 47//45 56//45 57//45
f 46//44 48//44 57//44 55//44
