# Blender v2.79 (sub 0) OBJ File: 'fighter.blend'
# www.blender.org
mtllib fighter.mtl
o Cube
v 1.000000 -2.007871 -1.000000
v 1.000000 -2.007871 1.000000
v -1.000000 -2.007871 1.000000
v -1.000000 -2.007871 -1.000000
v 0.537330 1.332513 -0.537330
v 0.537330 1.332513 0.537331
v -0.537330 1.332513 0.537330
v -0.537330 1.332513 -0.537330
v 1.000000 -0.844945 -1.000000
v 1.000000 -0.844945 1.000000
v -1.000000 -0.844945 1.000000
v -1.000000 -0.844945 -1.000000
v 3.101492 -2.007871 -1.000000
v 3.101492 -2.007871 1.000000
v 3.101492 -0.844945 -0.999999
v 3.101491 -0.844945 1.000000
v -3.085759 -2.007871 0.999999
v -3.085758 -2.007871 -1.000001
v -3.085759 -0.844945 0.999999
v -3.085758 -0.844945 -1.000001
v -1.236911 -1.611402 0.318151
v -2.271223 -1.611402 0.318151
v -2.513347 -2.007871 1.000000
v -2.513346 -2.007871 -1.000001
v -2.271223 -1.611402 -0.318152
v -1.236911 -1.611402 -0.318152
v -1.236911 -1.241415 0.318151
v -2.271223 -1.241415 0.318151
v -2.513347 -0.844945 1.000000
v -1.236911 -1.241415 -0.318152
v -2.271223 -1.241415 -0.318152
v -2.513346 -0.844945 -1.000000
v 0.357122 2.920035 -0.357122
v 0.357122 2.920035 0.357122
v -0.357122 2.920035 0.357122
v -0.357122 2.920035 -0.357122
v 1.200899 -1.572815 0.251790
v 2.272034 -1.574492 0.254676
v 2.499711 -2.007871 1.000000
v 2.499711 -0.844945 1.000000
v 2.272034 -1.278323 0.254676
v 1.200899 -1.280001 0.251790
v 1.200899 -1.572815 -0.251790
v 2.272034 -1.574492 -0.254675
v 2.499711 -2.007871 -1.000000
v 1.200899 -1.280001 -0.251790
v 2.272034 -1.278323 -0.254675
v 2.499711 -0.844945 -0.999999
v 2.988535 1.069431 -0.624590
v 2.988534 1.069431 0.624591
v 2.612668 1.069431 0.624591
v 2.612668 1.069431 -0.624590
v -2.982360 1.070724 0.638727
v -2.982360 1.070724 -0.638728
v -2.616745 1.070724 0.638727
v -2.616745 1.070724 -0.638728
v -2.898924 -0.683572 -0.347204
v -2.863694 0.555813 -0.224109
v -2.982360 0.771924 -0.638728
v -2.616745 0.771924 -0.638728
v -2.735411 0.555813 -0.224109
v -2.700181 -0.683572 -0.347204
v -2.898924 -0.683572 0.347203
v -2.863694 0.555813 0.224108
v -2.982360 0.771924 0.638727
v -2.616745 0.771924 0.638727
v -2.735411 0.555813 0.224108
v -2.700181 -0.683572 0.347203
v 2.703194 -0.656612 -0.323729
v 2.703194 0.531225 -0.323729
v 2.612668 0.754177 -0.624590
v 2.988535 0.754177 -0.624590
v 2.898008 0.531225 -0.323728
v 2.898008 -0.656612 -0.323728
v 2.898008 -0.656612 0.323730
v 2.898008 0.531225 0.323730
v 2.988534 0.754177 0.624591
v 2.612668 0.754177 0.624591
v 2.703194 0.531225 0.323730
v 2.703194 -0.656612 0.323730
vn 0.0000 -1.0000 0.0000
vn -0.9936 0.1128 -0.0000
vn 0.9782 0.2078 0.0000
vn -0.0000 0.2078 0.9782
vn -0.9782 0.2078 -0.0000
vn 0.0000 0.0000 -1.0000
vn 0.0000 0.2078 -0.9782
vn -0.0000 -0.0000 1.0000
vn 1.0000 0.0000 0.0000
vn -1.0000 0.0000 -0.0000
vn -0.9446 0.0000 -0.3282
vn 0.9424 0.0000 -0.3346
vn -0.8584 0.5129 -0.0000
vn 0.0000 1.0000 0.0000
vn 0.8534 0.5212 0.0000
vn -0.9446 -0.0000 0.3282
vn 0.9424 0.0000 0.3346
vn -0.8584 -0.5130 -0.0000
vn 0.8534 -0.5212 0.0000
vn 0.0000 0.1128 -0.9936
vn -0.0000 0.1128 0.9936
vn 0.9936 0.1128 0.0000
vn 0.9079 0.4192 0.0000
vn -0.0016 1.0000 -0.0000
vn -0.8853 0.4651 -0.0000
vn 0.9658 -0.0000 -0.2593
vn -0.0027 0.0000 -1.0000
vn -0.9564 0.0000 -0.2921
vn 0.9079 -0.4192 0.0000
vn -0.0016 -1.0000 0.0000
vn -0.8853 -0.4651 0.0000
vn 0.9658 0.0000 0.2593
vn -0.0027 -0.0000 1.0000
vn -0.9564 -0.0000 0.2921
vn -0.0000 0.9708 0.2400
vn 0.0000 0.0988 0.9951
vn -0.0000 -0.8868 0.4622
vn 0.6537 0.7568 0.0000
vn 0.9996 0.0284 0.0000
vn 0.8765 -0.4813 0.0000
vn -0.6537 0.7568 -0.0000
vn -0.9996 0.0284 0.0000
vn -0.8765 -0.4813 -0.0000
vn 0.0000 0.9708 -0.2400
vn 0.0000 0.0988 -0.9951
vn 0.0000 -0.8868 -0.4622
vn 0.6793 0.7339 0.0000
vn 0.9265 -0.3762 0.0000
vn -0.6793 0.7339 -0.0000
vn -0.9265 -0.3762 -0.0000
vn -0.0000 0.9633 0.2683
vn 0.0000 -0.8034 0.5954
vn -0.0000 0.9633 -0.2683
vn 0.0000 -0.8034 -0.5954
usemtl Material
s off
f 1//1 2//1 3//1 4//1
f 8//2 7//2 35//2 36//2
f 9//3 5//3 6//3 10//3
f 10//4 6//4 7//4 11//4
f 11//5 7//5 8//5 12//5
f 9//6 1//6 4//6 12//6
f 5//7 9//7 12//7 8//7
f 24//1 23//1 17//1 18//1
f 2//8 10//8 11//8 3//8
f 40//8 39//8 14//8 16//8
f 13//9 15//9 16//9 14//9
f 39//1 45//1 13//1 14//1
f 45//6 48//6 15//6 13//6
f 72//6 71//6 52//6 49//6
f 17//10 19//10 20//10 18//10
f 23//8 29//8 19//8 17//8
f 60//6 59//6 54//6 56//6
f 32//6 24//6 18//6 20//6
f 12//11 4//11 26//11 30//11
f 30//6 26//6 25//6 31//6
f 31//12 25//12 24//12 32//12
f 11//13 12//13 30//13 27//13
f 27//14 30//14 31//14 28//14
f 28//15 31//15 32//15 29//15
f 3//16 11//16 27//16 21//16
f 21//8 27//8 28//8 22//8
f 22//17 28//17 29//17 23//17
f 4//18 3//18 21//18 26//18
f 26//1 21//1 22//1 25//1
f 25//19 22//19 23//19 24//19
f 33//14 36//14 35//14 34//14
f 5//20 8//20 36//20 33//20
f 7//21 6//21 34//21 35//21
f 6//22 5//22 33//22 34//22
f 9//23 10//23 42//23 46//23
f 46//24 42//24 41//24 47//24
f 47//25 41//25 40//25 48//25
f 1//26 9//26 46//26 43//26
f 43//27 46//27 47//27 44//27
f 44//28 47//28 48//28 45//28
f 2//29 1//29 43//29 37//29
f 37//30 43//30 44//30 38//30
f 38//31 44//31 45//31 39//31
f 10//32 2//32 37//32 42//32
f 42//33 37//33 38//33 41//33
f 41//34 38//34 39//34 40//34
f 52//14 51//14 50//14 49//14
f 78//8 77//8 50//8 51//8
f 71//10 78//10 51//10 52//10
f 77//9 72//9 49//9 50//9
f 55//14 56//14 54//14 53//14
f 59//10 65//10 53//10 54//10
f 66//9 60//9 56//9 55//9
f 65//8 66//8 55//8 53//8
f 19//35 29//35 68//35 63//35
f 63//36 68//36 67//36 64//36
f 64//37 67//37 66//37 65//37
f 29//38 32//38 62//38 68//38
f 68//39 62//39 61//39 67//39
f 67//40 61//40 60//40 66//40
f 20//41 19//41 63//41 57//41
f 57//42 63//42 64//42 58//42
f 58//43 64//43 65//43 59//43
f 32//44 20//44 57//44 62//44
f 62//45 57//45 58//45 61//45
f 61//46 58//46 59//46 60//46
f 16//47 15//47 74//47 75//47
f 75//9 74//9 73//9 76//9
f 76//48 73//48 72//48 77//48
f 48//49 40//49 80//49 69//49
f 69//10 80//10 79//10 70//10
f 70//50 79//50 78//50 71//50
f 40//51 16//51 75//51 80//51
f 80//8 75//8 76//8 79//8
f 79//52 76//52 77//52 78//52
f 15//53 48//53 69//53 74//53
f 74//6 69//6 70//6 73//6
f 73//54 70//54 71//54 72//54
