# Blender v2.79 (sub 0) OBJ File: ''
# www.blender.org
mtllib fish.mtl
o Fish_Mesh
v -0.025934 -0.930735 0.247159
v -0.047352 1.497133 0.157841
v -0.025934 -0.930735 -0.265016
v -0.047352 1.497133 -0.157841
v 0.025934 -0.930735 0.247159
v 0.047352 1.497133 0.157841
v 0.025934 -0.930735 -0.265016
v 0.047352 1.497133 -0.157841
v -0.052007 -0.734213 0.173356
v -0.052007 -0.376371 0.107881
v -0.070747 -0.141090 0.235824
v -0.133233 0.401762 0.444112
v -0.164172 0.709300 0.547240
v -0.164172 1.079936 0.547240
v -0.164172 1.079936 -0.547240
v -0.164172 0.709300 -0.547240
v -0.133233 0.401762 -0.444112
v -0.070747 -0.141090 -0.235824
v -0.052007 -0.376371 -0.119786
v -0.052007 -0.734213 -0.167404
v 0.164172 1.079936 -0.547240
v 0.164172 0.709300 -0.547240
v 0.133233 0.401762 -0.444112
v 0.070747 -0.141090 -0.235824
v 0.052007 -0.376371 -0.119786
v 0.052007 -0.734213 -0.167404
v 0.164172 1.079936 0.547240
v 0.164172 0.709300 0.547240
v 0.133233 0.401762 0.444112
v 0.070747 -0.141090 0.235824
v 0.052007 -0.376371 0.107881
v 0.052007 -0.734213 0.173356
v -0.025934 -0.930735 0.000000
v -0.047352 1.497133 0.000000
v 0.025934 -0.930735 0.000000
v 0.047352 1.497133 0.000000
v 0.052007 -0.734213 0.000000
v 0.052007 -0.376371 0.000000
v 0.070747 -0.141090 0.000000
v 0.133233 0.401762 0.000000
v 0.164172 0.709300 0.000000
v 0.164172 1.079936 0.000000
v -0.052007 -0.734213 0.000000
v -0.052007 -0.376371 0.000000
v -0.070747 -0.141090 0.000000
v -0.133233 0.401762 0.000000
v -0.164172 0.709300 0.000000
v -0.164172 1.079936 0.000000
v -0.123117 1.322820 0.410391
v -0.123117 1.322820 -0.410391
v 0.123117 1.322820 -0.410391
v 0.123117 1.322820 0.410391
v 0.123117 1.322820 0.000000
v -0.123117 1.322820 0.000000
vn -0.9171 0.3986 0.0000
vn 0.0000 0.8230 -0.5680
vn 0.9171 0.3986 0.0000
vn 0.0000 0.8230 0.5680
vn 0.0000 -1.0000 0.0000
vn 0.0000 1.0000 0.0000
vn 0.0000 0.3516 0.9362
vn 0.0000 0.1800 0.9837
vn 0.0000 -0.4777 0.8785
vn 0.0000 -0.3582 0.9336
vn 0.0000 -0.3179 0.9481
vn 0.0000 0.0000 1.0000
vn 0.9913 -0.1315 0.0000
vn 1.0000 0.0000 0.0000
vn 0.9968 -0.0794 0.0000
vn 0.9934 -0.1144 0.0000
vn 0.9950 -0.1001 0.0000
vn 0.0000 0.4448 -0.8956
vn 0.0000 0.1319 -0.9913
vn 0.0000 -0.4423 -0.8969
vn 0.0000 -0.3582 -0.9336
vn 0.0000 -0.3179 -0.9481
vn 0.0000 0.0000 -1.0000
vn -0.9913 -0.1315 0.0000
vn -1.0000 -0.0000 0.0000
vn -0.9968 -0.0794 0.0000
vn -0.9934 -0.1144 0.0000
vn -0.9950 -0.1001 0.0000
vn -0.9860 0.1667 0.0000
vn 0.9860 0.1667 0.0000
vn 0.0000 0.4909 0.8712
vn 0.0000 0.4909 -0.8712
usemtl None
s off
f 54//1 34//1 4//1 50//1
f 50//2 4//2 8//2 51//2
f 53//3 36//3 6//3 52//3
f 52//4 6//4 2//4 49//4
f 33//5 35//5 5//5 1//5
f 36//6 34//6 2//6 6//6
f 5//7 32//7 9//7 1//7
f 32//8 31//8 10//8 9//8
f 31//9 30//9 11//9 10//9
f 30//10 29//10 12//10 11//10
f 29//11 28//11 13//11 12//11
f 28//12 27//12 14//12 13//12
f 35//13 37//13 32//13 5//13
f 37//14 38//14 31//14 32//14
f 38//15 39//15 30//15 31//15
f 39//16 40//16 29//16 30//16
f 40//17 41//17 28//17 29//17
f 41//14 42//14 27//14 28//14
f 3//18 20//18 26//18 7//18
f 20//19 19//19 25//19 26//19
f 19//20 18//20 24//20 25//20
f 18//21 17//21 23//21 24//21
f 17//22 16//22 22//22 23//22
f 16//23 15//23 21//23 22//23
f 33//24 43//24 20//24 3//24
f 43//25 44//25 19//25 20//25
f 44//26 45//26 18//26 19//26
f 45//27 46//27 17//27 18//27
f 46//28 47//28 16//28 17//28
f 47//25 48//25 15//25 16//25
f 13//25 14//25 48//25 47//25
f 12//28 13//28 47//28 46//28
f 11//27 12//27 46//27 45//27
f 10//26 11//26 45//26 44//26
f 9//25 10//25 44//25 43//25
f 1//24 9//24 43//24 33//24
f 22//14 21//14 42//14 41//14
f 23//17 22//17 41//17 40//17
f 24//16 23//16 40//16 39//16
f 25//15 24//15 39//15 38//15
f 26//14 25//14 38//14 37//14
f 7//13 26//13 37//13 35//13
f 8//6 4//6 34//6 36//6
f 3//5 7//5 35//5 33//5
f 51//3 8//3 36//3 53//3
f 49//1 2//1 34//1 54//1
f 14//29 49//29 54//29 48//29
f 21//30 51//30 53//30 42//30
f 27//31 52//31 49//31 14//31
f 42//30 53//30 52//30 27//30
f 15//32 50//32 51//32 21//32
f 48//29 54//29 50//29 15//29
